<svg width="17" height="16" viewBox="0 0 17 16" fill="none" xmlns="http://www.w3.org/2000/svg">
<path d="M8.8565 6.983L2.6765 13.163C2.42709 13.435 2.4363 13.8553 2.6974 14.1161C2.95849 14.3769 3.37874 14.3857 3.6505 14.136L9.8305 7.956C10.9414 8.70368 12.3757 8.77237 13.5529 8.13427C14.7302 7.49617 15.4556 6.25693 15.4355 4.918L12.2625 7.344L9.5225 4.604L11.9885 1.38C10.6331 1.3233 9.36121 2.03416 8.69931 3.21826C8.03741 4.40237 8.0982 5.85819 8.8565 6.983ZM10.1005 9.633L4.1375 15.597C3.87924 15.8554 3.52886 16.0006 3.1635 16.0006C2.79814 16.0006 2.44776 15.8554 2.1895 15.597L1.2155 14.623C0.95707 14.3647 0.811872 14.0144 0.811872 13.649C0.811872 13.2836 0.95707 12.9333 1.2155 12.675L7.1785 6.712C6.44749 4.75385 7.01865 2.54759 8.608 1.19014C10.1974 -0.167308 12.4658 -0.386318 14.2855 0.642L11.3485 4.482L12.3835 5.518L16.2075 2.594C17.1996 4.417 16.9558 6.66437 15.5958 8.23217C14.2358 9.79998 12.0453 10.3587 10.1005 9.634" fill="#242424"/>
</svg>
