<svg width="1201" height="161" viewBox="0 0 1201 161" fill="none" xmlns="http://www.w3.org/2000/svg">
<g clip-path="url(#clip0_12_9502)">
<rect width="1200" height="160" transform="translate(0.599976 0.900146)" fill="white"/>
<path d="M883.6 144.9H915.6V160.9H883.6" fill="#6C63FF"/>
<path d="M741.6 134.9H752.6V156.9H741.6" fill="#352EA4"/>
<path d="M295.6 16.9001H390.6V160.9H295.6" fill="#352EA4"/>
<path d="M98.6 143.9C102.6 140.9 107.6 150.9 107.6 150.9C107.6 150.9 100.6 135.9 107.6 134.9C109.6 134.9 112.6 140.9 113.6 147.9C113.6 141.9 115.6 136.9 117.6 136.9C123.6 135.9 119.6 151.9 119.6 151.9L118.6 160.9H108.6C111.6 164.9 94.6 146.9 98.6 143.9Z" fill="#6C63FF"/>
<path d="M904.6 127.9C910.6 127.9 915.6 133.9 915.6 140.9V144.9H885.6V127.9" fill="white"/>
<path d="M767.6 76.9001H779.6V98.9001H767.6" fill="#1D12D1"/>
<path d="M387.6 16.9001H441.6V160.9H387.6M295.6 52.9001H387.6V56.9001H295.6M295.6 85.9001H387.6V89.9001H295.6M295.6 119.9H387.6V123.9H295.6" fill="#6C63FF"/>
<path d="M815.6 151.9H816.6C819.727 148.971 821.83 145.115 822.6 140.9C824.6 136.9 824.6 131.9 821.6 126.9C814.6 113.9 798.6 120.9 792.6 127.9C789.12 132.067 787.99 137.715 789.6 142.9C791.883 149.048 797.175 153.584 803.6 154.9C807.835 155.442 812.119 154.372 815.6 151.9Z" fill="#FED036"/>
<path d="M885.6 127.9C878.813 128.424 873.58 134.094 873.6 140.9V144.9H898.6V140.9C898.6 133.725 892.775 127.9 885.6 127.9ZM848.6 0.900146H951.6V9.90015H848.6" fill="#BFECFF"/>
<path d="M711.6 126.9H713.6V149.9H711.6" fill="#C0E7FA"/>
<path d="M299.6 23.9001H383.6V51.9001H299.6M299.6 58.9001H383.6V83.9001H299.6M299.6 91.9001H383.6V116.9H299.6M300.6 125.9H382.6V160.9H300.6" fill="#4C44D6"/>
<path d="M806.6 131.9H807.6V160.9H806.6" fill="#6C63FF"/>
<path d="M951.6 0.900146H974.6V9.90015H951.6" fill="#1E178B"/>
<path d="M701.6 138.9V136.9H724.6V138.9" fill="#C0E7FA"/>
<path d="M355.6 18.9001H358.6V51.9001H355.6M323.6 18.9001H327.6V51.9001H323.6M355.6 57.9001H358.6V84.9001H355.6M323.6 56.9001H327.6V84.9001H323.6M355.6 90.9001H358.6V117.9H355.6M323.6 90.9001H327.6V117.9H323.6M392.6 91.9001H436.6V116.9H392.6M392.6 58.9001H436.6V83.9001H392.6M392.6 23.9001H437.6V51.9001H392.6" fill="#352EA4"/>
<path d="M508.6 149.9C507.6 148.9 504.6 148.9 503.6 150.9C503.042 151.811 502.7 152.837 502.6 153.9C502.6 150.9 501.6 141.9 497.6 141.9C494.6 141.9 494.6 149.9 494.6 153.9C492.6 149.9 491.6 147.9 489.6 147.9C483.6 147.9 490.6 160.9 490.6 160.9H504.6L506.6 157.9C507.422 156.65 508.093 155.308 508.6 153.9C508.735 153.24 508.735 152.56 508.6 151.9C508.829 151.253 508.829 150.547 508.6 149.9Z" fill="#A7A6AB"/>
<path d="M1014.6 87.9001H1073.6V160.9H1014.6" fill="#352EA4"/>
<path d="M736.6 120.9H786.6V124.9H736.6" fill="white"/>
<path d="M326.6 160.9V140.9H356.6V160.9H326.6Z" fill="white"/>
<path d="M256.6 142.9C258.6 142.9 260.6 147.9 261.6 153.9C261.6 148.9 263.6 144.9 264.6 143.9C270.6 143.9 267.6 152.9 267.6 152.9L265.6 160.9H257.6C258.6 166.9 250.6 143.9 256.6 142.9ZM835.6 142.9C837.6 142.9 839.6 147.9 840.6 153.9C840.6 148.9 842.6 144.9 843.6 143.9C849.6 143.9 846.6 152.9 846.6 152.9L844.6 160.9H836.6C837.6 166.9 829.6 143.9 835.6 142.9ZM688.6 138.9C689.6 132.9 685.6 105.9 673.6 109.9C670.6 111.9 666.6 117.9 665.6 120.9C660.6 129.9 658.6 147.9 667.6 154.9C672.6 157.9 679.6 156.9 683.6 152.9C687.6 149.9 688.6 144.9 688.6 138.9Z" fill="#352EA4"/>
<path d="M1073.6 87.9001H1100.6V160.9H1073.6" fill="#6C63FF"/>
<path d="M737.6 121.9V156.9H734.6V121.9M758.6 120.9V156.9H755.6V120.9M786.6 121.9V156.9H783.6V121.9" fill="white"/>
<path d="M358.6 160.9H354.6V141.9H327.6V160.9H324.6V138.9H358.6V160.9Z" fill="#352EA4"/>
<path d="M674.6 126.9H675.6V160.9H674.6" fill="#6C63FF"/>
<path d="M1082.6 118.9H1114.6V160.9H1082.6" fill="#352EA4"/>
<path d="M713.6 93.9001L737.6 121.9H689.6L713.6 93.9001Z" fill="#4C44D6"/>
<path d="M477.6 143.9C472.6 140.9 467.6 150.9 467.6 150.9C467.6 150.9 474.6 135.9 468.6 134.9C465.6 134.9 463.6 140.9 461.6 147.9C461.6 141.9 460.6 136.9 458.6 136.9C452.6 135.9 455.6 151.9 455.6 151.9L457.6 160.9H467.6C470.6 156.9 481.6 146.9 477.6 143.9Z" fill="#6C63FF"/>
<path d="M1141.6 143.9C1141.6 139.9 1138.6 136.9 1138.6 133.9L1136.6 123.9C1134.6 121.9 1133.6 120.9 1130.6 120.9C1127.6 120.9 1126.6 121.9 1124.6 123.9L1123.6 133.9L1119.6 143.9C1117.6 150.9 1121.6 156.9 1128.6 156.9H1131.6C1134.9 156.955 1138.05 155.526 1140.18 153.007C1142.31 150.488 1143.2 147.145 1142.6 143.9H1141.6Z" fill="#A7A6AB"/>
<path d="M1114.6 118.9H1126.6V160.9H1114.6" fill="#6C63FF"/>
<path d="M740.6 123.9H685.6L713.6 90.9001M693.6 120.9H733.6L713.6 96.9001" fill="white"/>
<path d="M1004.6 149.9C1003.6 148.9 1000.6 148.9 999.6 150.9C999.042 151.811 998.7 152.837 998.6 153.9C998.6 150.9 997.6 141.9 993.6 141.9C990.6 141.9 990.6 149.9 990.6 153.9C989.6 149.9 987.6 147.9 985.6 147.9C979.6 147.9 986.6 160.9 986.6 160.9H1000.6L1002.6 157.9C1003.42 156.65 1004.09 155.308 1004.6 153.9C1004.73 153.24 1004.73 152.56 1004.6 151.9C1004.83 151.253 1004.83 150.547 1004.6 149.9Z" fill="#A7A6AB"/>
<path d="M1130.6 133.9H1131.6V160.9H1130.6M199.6 54.9001L161.6 117.9H238.6L199.6 54.9001Z" fill="#6C63FF"/>
<path d="M1024.6 98.9001H1064.6V115.9H1024.6" fill="#4C44D6"/>
<path d="M709.6 104.9H717.6V116.9H709.6" fill="white"/>
<path d="M1154.6 145.9H1155.6C1159.71 147.59 1164.17 148.275 1168.6 147.9C1174.6 147.9 1179.6 145.9 1183.6 142.9C1194.6 131.9 1180.6 120.9 1170.6 118.9C1164.6 116.9 1157.6 117.9 1152.6 120.9C1147.6 123.9 1144.6 129.9 1146.6 135.9C1147.64 140.262 1150.57 143.93 1154.6 145.9Z" fill="#6C63FF"/>
<path d="M149.6 55.9001H200.6V117.9H149.6" fill="#6C63FF"/>
<path d="M1032.6 98.9001H1056.6V115.9H1032.6M1096.6 130.9H1114.6V153.9H1096.6" fill="white"/>
<path d="M786.6 120.9H797.6V156.9H786.6" fill="#1D12D1"/>
<path d="M1157.6 122.9L1158.6 123.9C1161.78 125.125 1165.24 125.47 1168.6 124.9C1172.6 124.9 1176.6 123.9 1178.6 120.9C1186.6 111.9 1176.6 102.9 1169.6 100.9C1165.2 99.363 1160.33 100.113 1156.6 102.9C1152.91 105.72 1151 110.294 1151.6 114.9C1152.45 118.26 1154.61 121.14 1157.6 122.9Z" fill="#6C63FF"/>
<path d="M149.6 54.9001L111.6 117.9H188.6L149.6 54.9001Z" fill="#352EA4"/>
<path d="M1114.6 130.9H1122.6V153.9H1114.6" fill="#4C44D6"/>
<path d="M788.6 134.9H794.6V146.9H788.6" fill="#352EA4"/>
<path d="M1165.6 123.9H1166.6V160.9H1165.6" fill="#6C63FF"/>
<path d="M149.6 61.9001L115.6 117.9H184.6L149.6 61.9001ZM115.6 117.9H184.6V138.9H115.6" fill="#C5C2F7"/>
<path d="M1024.6 137.9H1037.6V154.9H1024.6" fill="white"/>
<path d="M686.6 156.9H797.6V160.9H686.6" fill="#1D12D1"/>
<path d="M66.6 137.9C65.6 131.9 61.6 126.9 60.6 120.9C58.6 115.9 59.6 109.9 57.6 104.9C55.2199 100.181 50.3851 97.2049 45.1 97.2049C39.8148 97.2049 34.9801 100.181 32.6 104.9C29.6 109.9 30.6 115.9 29.6 120.9L22.6 137.9C20.6564 146.465 23.7605 155.39 30.6 160.9H58.6C65.4394 155.39 68.5436 146.465 66.6 137.9Z" fill="#352EA4"/>
<path d="M165.6 117.9H234.6V138.9H165.6" fill="#C5C2F7"/>
<path d="M1024.6 154.9H1037.6V160.9H1024.6" fill="#4C44D6"/>
<path d="M505.6 72.9001H608.6V160.9H505.6" fill="#352EA4"/>
<path d="M45.6 113.9H46.6V160.9H45.6" fill="#6C63FF"/>
<path d="M130.6 122.9H144.6V132.9H130.6M211.6 122.9H225.6V132.9H211.6" fill="white"/>
<path d="M1045.6 133.9H1064.6V160.9H1045.6" fill="#6C63FF"/>
<path d="M505.6 146.9H608.6V147.9H505.6M505.6 140.9H608.6V141.9H505.6M505.6 134.9H608.6H505.6ZM505.6 127.9H608.6V128.9H505.6M505.6 121.9H608.6V122.9H505.6M505.6 115.9H608.6V116.9H505.6M505.6 109.9H608.6H505.6ZM505.6 102.9H608.6V103.9H505.6M505.6 96.9001H608.6V97.9001H505.6M505.6 90.9001H608.6V91.9001H505.6M505.6 83.9001H608.6V84.9001H505.6M505.6 77.9001H608.6V78.9001H505.6M616.6 106.9H639.6V160.9H616.6" fill="#6C63FF"/>
<path d="M303.6 149.9C302.6 148.9 299.6 148.9 298.6 150.9C298.042 151.811 297.7 152.837 297.6 153.9C297.6 150.9 296.6 141.9 292.6 141.9C289.6 141.9 289.6 149.9 289.6 153.9C287.6 149.9 286.6 147.9 284.6 147.9C278.6 147.9 285.6 160.9 285.6 160.9H299.6L301.6 157.9C302.422 156.65 303.093 155.308 303.6 153.9C303.735 153.24 303.735 152.56 303.6 151.9C303.829 151.253 303.829 150.547 303.6 149.9ZM84.6 143.9C82.6 140.9 79.6 141.9 77.6 143.9C76.4496 145.705 75.7626 147.766 75.6 149.9C75.6 143.9 75.6 129.9 69.6 129.9C64.6 129.9 64.6 143.9 64.6 149.9C63.6 142.9 60.6 139.9 57.6 139.9C49.6 140.9 59.6 160.9 59.6 160.9H79.6L82.6 155.9C83.4516 153.967 84.1212 151.958 84.6 149.9C84.8694 148.58 84.8694 147.22 84.6 145.9C84.7119 145.238 84.7119 144.562 84.6 143.9Z" fill="#A7A6AB"/>
<path d="M115.6 138.9H234.6V160.9H115.6" fill="#352EA4"/>
<path d="M1049.6 137.9H1064.6V160.9H1049.6M1010.6 123.9H1060.6V127.9H1010.6M1010.6 85.9001H1073.6V88.9001H1010.6" fill="#4C44D6"/>
<path d="M505.6 72.9001H543.6V109.9H505.6" fill="#6C63FF"/>
<path d="M146.6 138.9H201.6V160.9H146.6" fill="#6C63FF"/>
<path d="M1073.6 85.9001H1102.6V88.9001H1073.6" fill="#352EA4"/>
<path d="M497.6 103.9H543.6V110.9H497.6" fill="#C5C2F7"/>
<path d="M178.6 101.9L156.6 138.9H201.6L178.6 101.9Z" fill="#352EA4"/>
<path d="M1059.6 123.9H1066.6V127.9H1059.6" fill="#6C63FF"/>
<path d="M526.6 127.9H543.6V156.9H526.6" fill="#6C63FF"/>
<path d="M168.6 101.9H178.6V110.9H168.6" fill="#352EA4"/>
<path d="M1083.6 113.9H1084.6V118.9H1083.6M1087.6 113.9H1088.6V118.9H1087.6M1090.6 113.9H1091.6V118.9H1090.6M1093.6 113.9H1094.6V118.9H1093.6M1096.6 113.9H1097.6V118.9H1096.6M1099.6 113.9H1100.6V118.9H1099.6M1102.6 113.9H1103.6V118.9H1102.6M1106.6 113.9H1107.6V118.9H1106.6M1109.6 113.9H1110.6V118.9H1109.6M1112.6 113.9H1113.6V118.9H1112.6" fill="#352EA4"/>
<path d="M547.6 130.9H555.6V137.9H547.6M560.6 130.9H568.6V137.9H560.6M583.6 86.9001H590.6V94.9001H583.6M596.6 86.9001H604.6V94.9001H596.6M522.6 126.9H543.6V130.9H522.6" fill="#C5C2F7"/>
<path d="M168.6 101.9L146.6 138.9H191.6L168.6 101.9Z" fill="#6C63FF"/>
<path d="M1115.6 113.9H1116.6V118.9H1115.6M1119.6 113.9H1120.6V118.9H1119.6M1122.6 113.9H1123.6V118.9H1122.6" fill="#6C63FF"/>
<path d="M616.6 154.9H639.6V155.9H616.6M616.6 148.9H639.6V149.9H616.6M616.6 141.9H639.6V142.9H616.6M616.6 135.9H639.6V136.9H616.6M616.6 129.9H639.6V130.9H616.6M616.6 123.9H639.6H616.6ZM616.6 116.9H639.6V117.9H616.6M578.6 106.9H616.6V160.9H578.6" fill="#352EA4"/>
<path d="M168.6 110.9L155.6 132.9H182.6L168.6 110.9Z" fill="#352EA4"/>
<path d="M1082.6 111.9H1114.6V113.9H1082.6" fill="#4C44D6"/>
<path d="M578.6 154.9H616.6V155.9H578.6M578.6 148.9H616.6V149.9H578.6M578.6 141.9H616.6V142.9H578.6M578.6 135.9H616.6V136.9H578.6M578.6 129.9H616.6V130.9H578.6M578.6 123.9H616.6H578.6ZM578.6 116.9H616.6V117.9H578.6" fill="#6C63FF"/>
<path d="M121.6 141.9H142.6V154.9H121.6M209.6 141.9H229.6V154.9H209.6" fill="white"/>
<path d="M1114.6 111.9H1126.6V113.9H1114.6" fill="#352EA4"/>
<path d="M505.6 98.9001H543.6V99.9001H505.6M505.6 92.9001H543.6H505.6ZM505.6 85.9001H543.6V86.9001H505.6M505.6 79.9001H543.6V80.9001H505.6" fill="#352EA4"/>
<path d="M146.6 137.9H191.6V160.9H146.6" fill="#6C63FF"/>
<path d="M686.6 123.9H784.6V156.9H686.6" fill="#4C44D6"/>
<path d="M574.6 105.9H619.6V112.9H574.6" fill="#C5C2F7"/>
<path d="M168.6 138.9C170.623 138.608 172.672 139.215 174.21 140.56C175.748 141.906 176.621 143.857 176.6 145.9V160.9H161.6V145.9C161.6 142.037 164.737 138.9 168.6 138.9Z" fill="#352EA4"/>
<path d="M797.6 123.9H686.6L689.6 82.9001H794.6L797.6 123.9Z" fill="#352EA4"/>
<path d="M868.6 19.9001H881.6V45.9001H868.6M894.6 19.9001H908.6V45.9001H894.6M868.6 52.9001H881.6V79.9001H868.6M894.6 52.9001H908.6V79.9001H894.6M868.6 85.9001H881.6V111.9H868.6M894.6 85.9001H908.6V111.9H894.6M924.6 19.9001H938.6V45.9001H924.6M924.6 52.9001H938.6V79.9001H924.6M924.6 85.9001H938.6V111.9H924.6" fill="#BFECFF"/>
<path d="M617.6 105.9H645.6V112.9H617.6" fill="#6C63FF"/>
<path d="M144.6 89.9001H155.6V106.9H144.6" fill="white"/>
<path d="M736.6 85.9001L760.6 113.9H712.6L736.6 85.9001Z" fill="#6C63FF"/>
<path d="M497.6 156.9H578.6V160.9H497.6" fill="#C5C2F7"/>
<path d="M858.6 9.90015H951.6V160.9H858.6" fill="#352EA4"/>
<path d="M763.6 115.9H709.6L736.6 82.9001M716.6 112.9H756.6L736.6 87.9001" fill="white"/>
<path d="M387.6 0.900146H430.6V24.9001H387.6" fill="#352EA4"/>
<path d="M951.6 9.90015H974.6V160.9H951.6" fill="#6C63FF"/>
<path d="M733.6 96.9001H740.6V106.9H733.6M702.6 128.9H722.6V147.9H702.6M763.6 133.9H779.6V147.9H763.6" fill="white"/>
<path d="M304.6 0.900146H387.6V24.9001H304.6" fill="#4C44D6"/>
</g>
<defs>
<clipPath id="clip0_12_9502">
<rect width="1200" height="160" fill="white" transform="translate(0.599976 0.900146)"/>
</clipPath>
</defs>
</svg>
